<svg width="22" height="14" viewBox="0 0 22 14" fill="none" xmlns="http://www.w3.org/2000/svg">
<path fill-rule="evenodd" clip-rule="evenodd" d="M21.5001 6.99997C21.5001 6.80106 21.4211 6.61029 21.2805 6.46964C21.1398 6.32899 20.949 6.24997 20.7501 6.24997H3.06062L7.78112 1.53097C7.85085 1.46124 7.90617 1.37846 7.9439 1.28735C7.98164 1.19624 8.00107 1.09859 8.00107 0.999971C8.00107 0.901355 7.98164 0.803705 7.9439 0.712596C7.90617 0.621487 7.85085 0.538703 7.78112 0.468971C7.71139 0.399239 7.6286 0.343925 7.5375 0.306186C7.44639 0.268447 7.34874 0.249023 7.25012 0.249023C7.1515 0.249023 7.05385 0.268447 6.96274 0.306186C6.87163 0.343925 6.78885 0.399239 6.71912 0.468971L0.71912 6.46897C0.649275 6.53864 0.593861 6.6214 0.556051 6.71252C0.518241 6.80364 0.498779 6.90132 0.498779 6.99997C0.498779 7.09862 0.518241 7.1963 0.556051 7.28742C0.593861 7.37854 0.649275 7.4613 0.71912 7.53097L6.71912 13.531C6.78885 13.6007 6.87163 13.656 6.96274 13.6938C7.05385 13.7315 7.1515 13.7509 7.25012 13.7509C7.34874 13.7509 7.44639 13.7315 7.5375 13.6938C7.6286 13.656 7.71139 13.6007 7.78112 13.531C7.85085 13.4612 7.90617 13.3785 7.9439 13.2873C7.98164 13.1962 8.00107 13.0986 8.00107 13C8.00107 12.9014 7.98164 12.8037 7.9439 12.7126C7.90617 12.6215 7.85085 12.5387 7.78112 12.469L3.06062 7.74997H20.7501C20.949 7.74997 21.1398 7.67095 21.2805 7.5303C21.4211 7.38965 21.5001 7.19888 21.5001 6.99997Z" fill="#535453"/>
</svg>
